<?xml version="1.0" encoding="UTF-8"?>
<svg version="1.1" xmlns="http://www.w3.org/2000/svg" width="180" height="52">
<path d="M0 0 C1.33278992 0.00303635 1.33278992 0.00303635 2.69250488 0.00613403 C3.5987561 0.00517731 4.50500732 0.00422058 5.4387207 0.00323486 C7.35876535 0.002553 9.27881229 0.00440771 11.19885254 0.00857544 C14.14861192 0.01392361 17.09821902 0.00863066 20.04797363 0.00222778 C21.90865105 0.00288856 23.76932838 0.00416972 25.63000488 0.00613403 C26.51853149 0.0041098 27.40705811 0.00208557 28.32250977 0 C34.546305 0.02399665 34.546305 0.02399665 35.66125488 1.13894653 C35.75916058 2.63632778 35.79100353 4.13837545 35.78625488 5.63894653 C35.79012207 6.86097778 35.79012207 6.86097778 35.79406738 8.10769653 C35.66125488 10.13894653 35.66125488 10.13894653 34.66125488 11.13894653 C31.03125488 11.13894653 27.40125488 11.13894653 23.66125488 11.13894653 C23.66125488 20.70894653 23.66125488 30.27894653 23.66125488 40.13894653 C19.70125488 40.13894653 15.74125488 40.13894653 11.66125488 40.13894653 C10.66125488 39.13894653 10.66125488 39.13894653 10.54772949 36.54690552 C10.55296631 35.42098999 10.55820313 34.29507446 10.56359863 33.13504028 C10.56682129 31.92009888 10.57004395 30.70515747 10.57336426 29.45339966 C10.58174316 28.17400513 10.59012207 26.8946106 10.59875488 25.57644653 C10.6032666 24.29318481 10.60777832 23.0099231 10.61242676 21.68777466 C10.62425943 18.50478631 10.6407442 15.32188891 10.66125488 12.13894653 C8.68125488 12.13894653 6.70125488 12.13894653 4.66125488 12.13894653 C4.66125488 21.70894653 4.66125488 31.27894653 4.66125488 41.13894653 C10.93125488 41.13894653 17.20125488 41.13894653 23.66125488 41.13894653 C23.66125488 44.76894653 23.66125488 48.39894653 23.66125488 52.13894653 C13.43125488 52.13894653 3.20125488 52.13894653 -7.33874512 52.13894653 C-7.3616479 44.89403439 -7.38157689 37.64924684 -7.39367676 30.40432739 C-7.39871868 27.9375262 -7.40555202 25.47072801 -7.41418457 23.00393677 C-7.42625636 19.46690124 -7.43197468 15.92990508 -7.43640137 12.39285278 C-7.44156265 11.28245132 -7.44672394 10.17204987 -7.45204163 9.02799988 C-7.45211716 8.00701706 -7.45219269 6.98603424 -7.45227051 5.93411255 C-7.45449112 5.03032364 -7.45671173 4.12653473 -7.45899963 3.19535828 C-7.19547024 -1.31112481 -3.71903258 0.01433921 0 0 Z " fill="#E5E5E5" transform="translate(102.3387451171875,-0.138946533203125)"/>
<path d="M0 0 C7.26 0 14.52 0 22 0 C22 2.64 22 5.28 22 8 C17.71 8 13.42 8 9 8 C9 8.66 9 9.32 9 10 C12.96 10 16.92 10 21 10 C21 12.31 21 14.62 21 17 C17.37 17 13.74 17 10 17 C10 17.66 10 18.32 10 19 C10.85464844 19.06058594 11.70929688 19.12117188 12.58984375 19.18359375 C13.69457031 19.26738281 14.79929688 19.35117187 15.9375 19.4375 C17.59072266 19.55931641 17.59072266 19.55931641 19.27734375 19.68359375 C22 20 22 20 23 21 C23.125 24 23.125 24 23 27 C21.03177114 28.96822886 17.65191291 28.66248381 15 29 C15 31.64 15 34.28 15 37 C16.32 37 17.64 37 19 37 C19 37.99 19 38.98 19 40 C16.87527424 40.05386629 14.75016348 40.09273071 12.625 40.125 C11.44164062 40.14820313 10.25828125 40.17140625 9.0390625 40.1953125 C6 40 6 40 4 38 C4.375 34.375 4.375 34.375 5 31 C6.98 30.67 8.96 30.34 11 30 C11 29.34 11 28.68 11 28 C7.37 28 3.74 28 0 28 C0 18.76 0 9.52 0 0 Z M9 33 C8.67 34.32 8.34 35.64 8 37 C8.99 37 9.98 37 11 37 C10.67 35.68 10.34 34.36 10 33 C9.67 33 9.34 33 9 33 Z " fill="#E5E5E5" transform="translate(131,12)"/>
<path d="M0 0 C3.37976611 -0.28838962 6.62849685 -0.42863767 10 0 C12.2890625 2.1875 12.2890625 2.1875 13.625 5 C14.09164063 5.928125 14.55828125 6.85625 15.0390625 7.8125 C15.35617188 8.534375 15.67328125 9.25625 16 10 C16.33 6.7 16.66 3.4 17 0 C19.97 0 22.94 0 26 0 C26 9.24 26 18.48 26 28 C17 28 17 28 14.80859375 26.03125 C14.12990234 24.77828125 14.12990234 24.77828125 13.4375 23.5 C12.96183594 22.6646875 12.48617188 21.829375 11.99609375 20.96875 C11.66738281 20.3190625 11.33867187 19.669375 11 19 C10.855625 20.299375 10.71125 21.59875 10.5625 22.9375 C10.125 26.875 10.125 26.875 9 28 C7.1875 28.1328125 7.1875 28.1328125 5 28.125 C4.278125 28.12757812 3.55625 28.13015625 2.8125 28.1328125 C1 28 1 28 0 27 C-0.08758003 25.00035018 -0.10696576 22.9976389 -0.09765625 20.99609375 C-0.09443359 19.78115234 -0.09121094 18.56621094 -0.08789062 17.31445312 C-0.07951172 16.03505859 -0.07113281 14.75566406 -0.0625 13.4375 C-0.05798828 12.15423828 -0.05347656 10.87097656 -0.04882812 9.54882812 C-0.03699545 6.36583978 -0.02051068 3.18294238 0 0 Z " fill="#E5E5E5" transform="translate(17,12)"/>
<path d="M0 0 C0.91644287 0.00523682 1.83288574 0.01047363 2.77709961 0.01586914 C3.76645508 0.0190918 4.75581055 0.02231445 5.77514648 0.02563477 C6.81606445 0.03401367 7.85698242 0.04239258 8.92944336 0.05102539 C10.49662109 0.05779297 10.49662109 0.05779297 12.09545898 0.06469727 C14.68600996 0.07652627 17.27644895 0.0930085 19.86694336 0.11352539 C19.90936059 2.44647314 19.90787273 4.78055106 19.86694336 7.11352539 C18.86694336 8.11352539 18.86694336 8.11352539 16.39819336 8.17602539 C14.37736003 8.13435872 12.35652669 8.09269206 10.33569336 8.05102539 C7.9223548 7.82845243 7.9223548 7.82845243 6.86694336 9.11352539 C10.82694336 9.11352539 14.78694336 9.11352539 18.86694336 9.11352539 C18.86694336 11.75352539 18.86694336 14.39352539 18.86694336 17.11352539 C14.90694336 17.11352539 10.94694336 17.11352539 6.86694336 17.11352539 C7.19694336 17.77352539 7.52694336 18.43352539 7.86694336 19.11352539 C8.6494043 19.10192383 9.43186523 19.09032227 10.23803711 19.07836914 C11.24995117 19.0693457 12.26186523 19.06032227 13.30444336 19.05102539 C14.3137793 19.03942383 15.32311523 19.02782227 16.36303711 19.01586914 C18.86694336 19.11352539 18.86694336 19.11352539 19.86694336 20.11352539 C19.86694336 22.75352539 19.86694336 25.39352539 19.86694336 28.11352539 C12.60694336 28.11352539 5.34694336 28.11352539 -2.13305664 28.11352539 C-3.45719754 25.4652436 -3.26262706 23.44672427 -3.26586914 20.48461914 C-3.2671582 19.36764648 -3.26844727 18.25067383 -3.26977539 17.09985352 C-3.2659082 15.92874023 -3.26204102 14.75762695 -3.25805664 13.55102539 C-3.26192383 12.37604492 -3.26579102 11.20106445 -3.26977539 9.99047852 C-3.26848633 8.87479492 -3.26719727 7.75911133 -3.26586914 6.60961914 C-3.26474121 5.58022217 -3.26361328 4.5508252 -3.26245117 3.49023438 C-3.09663395 0.44451607 -3.03849658 0.16171465 0 0 Z " fill="#E5E5E5" transform="translate(73.133056640625,11.886474609375)"/>
<path d="M0 0 C3.46679688 0.04882812 3.46679688 0.04882812 6.93359375 0.09765625 C6.93359375 3.06765625 6.93359375 6.03765625 6.93359375 9.09765625 C8.91359375 9.09765625 10.89359375 9.09765625 12.93359375 9.09765625 C12.91296875 7.79828125 12.89234375 6.49890625 12.87109375 5.16015625 C12.84959921 3.80599992 12.86211176 2.45009542 12.93359375 1.09765625 C13.26359375 0.76765625 13.59359375 0.43765625 13.93359375 0.09765625 C16.57359375 0.09765625 19.21359375 0.09765625 21.93359375 0.09765625 C21.93359375 9.33765625 21.93359375 18.57765625 21.93359375 28.09765625 C18.96359375 28.09765625 15.99359375 28.09765625 12.93359375 28.09765625 C12.93359375 24.79765625 12.93359375 21.49765625 12.93359375 18.09765625 C10.95359375 18.09765625 8.97359375 18.09765625 6.93359375 18.09765625 C6.93359375 21.39765625 6.93359375 24.69765625 6.93359375 28.09765625 C3.63359375 28.09765625 0.33359375 28.09765625 -3.06640625 28.09765625 C-3.09526963 23.61850297 -3.11315812 19.13937334 -3.12890625 14.66015625 C-3.13728516 13.38076172 -3.14566406 12.10136719 -3.15429688 10.78320312 C-3.15751953 9.56826172 -3.16074219 8.35332031 -3.1640625 7.1015625 C-3.16929932 5.97564697 -3.17453613 4.84973145 -3.17993164 3.68969727 C-3.02459185 0.14293912 -3.02459185 0.14293912 0 0 Z " fill="#E6E6E6" transform="translate(158.06640625,11.90234375)"/>
<path d="M0 0 C3.96 0 7.92 0 12 0 C12.02464775 5.53588533 12.04283496 11.071739 12.05493164 16.60766602 C12.05997244 18.4924373 12.06680498 20.37720465 12.07543945 22.26196289 C12.08751617 24.96501636 12.09323068 27.66801831 12.09765625 30.37109375 C12.10281754 31.21900986 12.10797882 32.06692596 12.11329651 32.9405365 C12.11349195 34.96071068 12.06206211 36.98077934 12 39 C11.505 39.495 11.505 39.495 11 40 C7.37 40 3.74 40 0 40 C0 26.8 0 13.6 0 0 Z " fill="#E2E2E2" transform="translate(0,0)"/>
<path d="M0 0 C8.25 0 16.5 0 25 0 C25 2.64 25 5.28 25 8 C22.69 8 20.38 8 18 8 C18.01160156 9.27617187 18.02320312 10.55234375 18.03515625 11.8671875 C18.04453417 13.53645687 18.05363437 15.20572783 18.0625 16.875 C18.07087891 17.71675781 18.07925781 18.55851562 18.08789062 19.42578125 C18.09272461 20.63427734 18.09272461 20.63427734 18.09765625 21.8671875 C18.10551147 22.98262939 18.10551147 22.98262939 18.11352539 24.12060547 C18 26 18 26 17 28 C14.03 28 11.06 28 8 28 C8 21.4 8 14.8 8 8 C5.36 8 2.72 8 0 8 C0 5.36 0 2.72 0 0 Z " fill="#E5E5E5" transform="translate(44,12)"/>
<path d="M0 0 C1 1 1 1 1.0625 3.5625 C1.041875 4.366875 1.02125 5.17125 1 6 C2.32 6 3.64 6 5 6 C5 6.99 5 7.98 5 9 C2.87561661 9.08078641 0.7503677 9.13909141 -1.375 9.1875 C-3.15003906 9.23970703 -3.15003906 9.23970703 -4.9609375 9.29296875 C-6.46527344 9.14794922 -6.46527344 9.14794922 -8 9 C-10 6 -10 6 -9.75 2.875 C-9.37875 1.451875 -9.37875 1.451875 -9 0 C-5.90842747 -1.54578627 -3.31526981 -0.60277633 0 0 Z M-5 2 C-5.33 3.32 -5.66 4.64 -6 6 C-5.01 6 -4.02 6 -3 6 C-3 4.68 -3 3.36 -3 2 C-3.66 2 -4.32 2 -5 2 Z " fill="#E5E5E5" transform="translate(175,43)"/>
<path d="M0 0 C6.57692308 0.57692308 6.57692308 0.57692308 8 2 C8.04063832 3.66617115 8.042721 5.33388095 8 7 C9.32 7 10.64 7 12 7 C12 7.99 12 8.98 12 10 C9.87561661 10.08078641 7.7503677 10.13909141 5.625 10.1875 C3.84996094 10.23970703 3.84996094 10.23970703 2.0390625 10.29296875 C0.53472656 10.14794922 0.53472656 10.14794922 -1 10 C-3 7 -3 7 -2.75 4.4375 C-2 2 -2 2 0 0 Z M2 3 C1.67 4.32 1.34 5.64 1 7 C1.99 7 2.98 7 4 7 C4 5.68 4 4.36 4 3 C3.34 3 2.68 3 2 3 Z " fill="#E5E5E5" transform="translate(153,42)"/>
<path d="M0 0 C1.65 0 3.3 0 5 0 C5 1.98 5 3.96 5 6 C3.35 6 1.7 6 0 6 C0 4.02 0 2.04 0 0 Z " fill="#3B4350" transform="translate(3,3)"/>
</svg>
