<?xml version="1.0" encoding="UTF-8"?>
<svg version="1.1" xmlns="http://www.w3.org/2000/svg" width="1121" height="299">
<path d="M0 0 C80.85 0 161.7 0 245 0 C245 15.51 245 31.02 245 47 C221.9 47 198.8 47 175 47 C175 102.11 175 157.22 175 214 C153.88 214 132.76 214 111 214 C111 159.22 111 104.44 111 48 C79.70775492 48.03949648 79.70775492 48.03949648 48.41552734 48.09008789 C42.3215332 48.09460449 42.3215332 48.09460449 39.45596313 48.09544373 C37.4824094 48.09696515 35.50885651 48.10045231 33.53530884 48.10557556 C30.52140727 48.11299882 27.50756181 48.11390256 24.49365234 48.11352539 C23.6352947 48.1171235 22.77693707 48.12072161 21.89256859 48.12442875 C14.5173097 48.11224354 7.41895223 47.52992516 0 47 C0 31.49 0 15.98 0 0 Z " fill="#191919" transform="translate(579,8)"/>
<path d="M0 0 C19.8 0 39.6 0 60 0 C60 56.76 60 113.52 60 172 C98.13074431 171.96038095 98.13074431 171.96038095 136.26147461 171.90991211 C143.62023926 171.90539551 143.62023926 171.90539551 147.06031799 171.90455627 C149.47360925 171.9030162 151.88689972 171.89949 154.30018616 171.89442444 C157.94615017 171.8871511 161.59206698 171.88609244 165.23803711 171.88647461 C166.32116904 171.8828765 167.40430098 171.87927839 168.52025509 171.87557125 C169.49563008 171.87694875 170.47100508 171.87832624 171.47593689 171.87974548 C172.33043899 171.87882369 173.18494108 171.8779019 174.06533718 171.87695217 C176 172 176 172 177 173 C177 189.5 177 206 177 223 C118.59 223 60.18 223 0 223 C0 149.41 0 75.82 0 0 Z " fill="#191919" transform="translate(577,71)"/>
<path d="M0 0 C14.19 0 28.38 0 43 0 C50.84779685 10.09002452 50.84779685 10.09002452 53.93359375 14.8203125 C57.91913035 20.87863479 61.97991892 26.88174025 66.0625 32.875 C67.15570557 34.48097046 67.15570557 34.48097046 68.27099609 36.11938477 C69.77388445 38.32707299 71.27717117 40.53448919 72.78076172 42.74169922 C74.91862186 45.88052006 77.05513807 49.02025178 79.19140625 52.16015625 C80.50253198 54.08598665 81.81372668 56.01177009 83.125 57.9375 C84.01070679 59.23953369 84.01070679 59.23953369 84.91430664 60.56787109 C87.8204343 64.83272387 90.74822526 69.08075807 93.71044922 73.30688477 C94.32975311 74.19070328 94.94905701 75.07452179 95.58712769 75.98512268 C96.05337555 76.6500322 96.51962341 77.31494171 97 78 C97.01030746 77.03755875 97.02061493 76.07511749 97.03123474 75.08351135 C97.12880019 66.03332912 97.23151783 56.98321823 97.33933926 47.9331522 C97.39461007 43.27992231 97.44803658 38.62668619 97.49731445 33.97338867 C97.54489685 29.48649883 97.59723717 24.99968788 97.65294075 20.51289177 C97.67339216 18.79721975 97.69210053 17.08152607 97.70907402 15.36581612 C97.73305665 12.97109231 97.76311912 10.57651898 97.79467773 8.18188477 C97.8004332 7.46547318 97.80618866 6.74906158 97.81211853 6.01094055 C97.88594784 1.11405216 97.88594784 1.11405216 99 0 C113.19 0 127.38 0 142 0 C142 49.17 142 98.34 142 149 C127.48 149 112.96 149 98 149 C86.77130446 137.22356322 86.77130446 137.22356322 83.17431641 128.72900391 C81.75380388 125.42786274 80.04671626 122.83713539 77.9375 119.9375 C77.05964844 118.6071875 77.05964844 118.6071875 76.1640625 117.25 C71.16373557 109.74048374 66.04487095 102.31002596 60.95458984 94.86132812 C59.0265954 92.03893306 57.10095576 89.21494409 55.17578125 86.390625 C53.99225727 84.65620239 52.80866661 82.92182528 51.625 81.1875 C51.07175049 80.37531006 50.51850098 79.56312012 49.94848633 78.72631836 C49.44212646 77.98518799 48.9357666 77.24405762 48.4140625 76.48046875 C47.9701416 75.82973389 47.5262207 75.17899902 47.06884766 74.50854492 C46.08162074 73.0255647 46.08162074 73.0255647 45 72 C44.67 97.41 44.34 122.82 44 149 C29.48 149 14.96 149 0 149 C0 99.83 0 50.66 0 0 Z " fill="#191919" transform="translate(110,73)"/>
<path d="M0 0 C15.18 0 30.36 0 46 0 C46 17.16 46 34.32 46 52 C62.17 52 78.34 52 95 52 C95 34.84 95 17.68 95 0 C110.51 0 126.02 0 142 0 C142 49.17 142 98.34 142 149 C126.49 149 110.98 149 95 149 C95 129.2 95 109.4 95 89 C78.83 89 62.66 89 46 89 C46 108.8 46 128.6 46 149 C30.82 149 15.64 149 0 149 C0 99.83 0 50.66 0 0 Z " fill="#191919" transform="translate(944,76)"/>
<path d="M0 0 C40.92 0 81.84 0 124 0 C124 10.56 124 21.12 124 32 C122.32664004 33.67335996 120.28612091 33.11962895 118.05252075 33.12442017 C117.3454599 33.12082489 116.63839905 33.11722961 115.90991211 33.11352539 C115.16849472 33.11367142 114.42707733 33.11381744 113.66319275 33.1139679 C111.20121379 33.11326865 108.73930957 33.10547574 106.27734375 33.09765625 C104.57483461 33.09579211 102.87232493 33.09436819 101.16981506 33.09336853 C96.68006927 33.08954302 92.19035562 33.07971247 87.70062256 33.06866455 C83.12268509 33.05845113 78.54474244 33.05387106 73.96679688 33.04882812 C64.97784816 33.03809022 55.98893178 33.02049316 47 33 C47 40.26 47 47.52 47 55 C70.43 55 93.86 55 118 55 C118 65.23 118 75.46 118 86 C94.57 86 71.14 86 47 86 C47 95.57 47 105.14 47 115 C73.07 115 99.14 115 126 115 C126 126.22 126 137.44 126 149 C84.42 149 42.84 149 0 149 C0 99.83 0 50.66 0 0 Z " fill="#191919" transform="translate(794,76)"/>
<path d="M0 0 C40.59 0 81.18 0 123 0 C123 10.89 123 21.78 123 33 C97.59 33 72.18 33 46 33 C46 40.59 46 48.18 46 56 C69.43 56 92.86 56 117 56 C117 66.23 117 76.46 117 87 C93.57 87 70.14 87 46 87 C46 96.24 46 105.48 46 115 C72.07 115 98.14 115 125 115 C125 126.22 125 137.44 125 149 C83.75 149 42.5 149 0 149 C0 99.83 0 50.66 0 0 Z " fill="#191919" transform="translate(431,73)"/>
<path d="M0 0 C20.79 0 41.58 0 63 0 C63 73.26 63 146.52 63 222 C42.21 222 21.42 222 0 222 C0 148.74 0 75.48 0 0 Z " fill="#191A1A" transform="translate(0,0)"/>
<path d="M0 0 C46.2 0 92.4 0 140 0 C140 12.54 140 25.08 140 38 C124.49 38 108.98 38 93 38 C93 74.63 93 111.26 93 149 C77.82 149 62.64 149 47 149 C47 112.37 47 75.74 47 38 C31.49 38 15.98 38 0 38 C0 25.46 0 12.92 0 0 Z " fill="#191919" transform="translate(271,73)"/>
<path d="M0 0 C13.86 0 27.72 0 42 0 C42 13.86 42 27.72 42 42 C28.14 42 14.28 42 0 42 C0 28.14 0 14.28 0 0 Z " fill="#008E34" transform="translate(11,13)"/>
<path d="M0 0 C3.3 0 6.6 0 10 0 C10 22.44 10 44.88 10 68 C7.03 68 4.06 68 1 68 C0.67 66.68 0.34 65.36 0 64 C-0.78375 64.639375 -1.5675 65.27875 -2.375 65.9375 C-8.14002466 70.46716223 -14.98583761 69.50774702 -22 69 C-29.62572225 67.06737421 -33.87316486 61.40293622 -37.875 55 C-40.68841506 47.53686902 -40.04363189 37.8514959 -37.4375 30.4375 C-34.43415443 24.11577262 -30.06259971 20.55693386 -23.5625 18.125 C-16.0152218 15.97594451 -10.12323034 16.80682778 -3 20 C-2.34 20.66 -1.68 21.32 -1 22 C-0.67 14.74 -0.34 7.48 0 0 Z M-26.3125 31.5625 C-29.36113588 37.7726842 -29.81873551 44.22187104 -27.875 50.875 C-25.96353038 55.73187054 -23.17930912 58.70419458 -18.6875 61.375 C-14.03223541 62.45761967 -10.09154878 62.25411225 -6 59.80078125 C-2.0771033 56.68698199 0.12459318 54.05790605 1 49 C1.579673 42.623597 1.37455396 36.60350289 -2 31 C-5.48554678 27.26349385 -8.62275028 25.11477081 -13.75 24.6875 C-19.46081386 24.7806111 -22.56412193 27.40889187 -26.3125 31.5625 Z " fill="#191919" transform="translate(861,230)"/>
<path d="M0 0 C5.81323267 5.62494983 7.80898272 12.02941677 8.0625 20 C7.73732564 28.44369432 5.71702299 34.98393208 -0.375 40.9375 C-8.7972464 46.84253568 -17.49876495 46.47745321 -27.375 45.9375 C-33.06557027 44.85883967 -37.34253068 42.06161635 -41.375 37.9375 C-46.23573118 30.28146015 -47.51749665 22.27932462 -45.9140625 13.37890625 C-44.38262132 7.46033653 -42.18004369 2.83965211 -37.375 -1.0625 C-25.72203402 -7.80354558 -10.96156167 -8.62282402 0 0 Z M-32.1875 7.875 C-36.12701467 13.39032054 -36.02463493 19.32220342 -35.375 25.9375 C-34.07086213 30.43118648 -32.1450415 33.23909026 -28.6875 36.375 C-23.85621877 38.65390624 -19.40448486 39.84581116 -14.16015625 38.2734375 C-9.83637352 36.29271021 -6.97997159 34.00125567 -4.375 29.9375 C-2.33405946 23.81467837 -2.53595968 16.54784767 -4.5 10.4375 C-7.47106658 6.4760779 -10.58562181 3.5339594 -15.375 1.9375 C-22.45387111 1.47331173 -27.28565403 2.34291669 -32.1875 7.875 Z " fill="#191919" transform="translate(958.375,253.0625)"/>
<path d="M0 0 C5.76126542 4.76031829 7.66398629 9.86063826 8.5 17.1875 C8.90474688 25.21160692 8.19829717 32.42239356 3.04296875 38.84765625 C-2.37130913 44.44091852 -8.79565821 46.5262906 -16.44042969 46.74365234 C-25.30480998 46.76940937 -32.01048442 45.94608401 -38.98046875 39.92578125 C-45.09454707 33.38138657 -45.8928901 25.96845102 -45.65625 17.4296875 C-44.98223099 9.95931019 -42.01679793 4.29650983 -36.375 -0.6875 C-25.13361088 -7.96134002 -11.06429115 -7.53357115 0 0 Z M-32.875 9.1875 C-35.55229132 14.67297243 -35.12813958 21.4027291 -34.375 27.3125 C-32.36363693 32.10529087 -30.06051603 35.83713304 -25.375 38.3125 C-20.30883076 39.77209985 -15.85985177 39.90791926 -11 37.75 C-6.83525775 35.31846362 -4.22319962 32.08634201 -2.796875 27.421875 C-1.4754693 20.81484649 -1.80290562 14.90380928 -5.1640625 9.00390625 C-7.6691786 5.50482473 -10.3401944 3.6574352 -14.375 2.3125 C-22.1843171 1.65069347 -27.62891321 3.15450019 -32.875 9.1875 Z " fill="#191919" transform="translate(1048.375,252.6875)"/>
<path d="M0 0 C3.96 0 7.92 0 12 0 C12 3.3 12 6.6 12 10 C8.04 10 4.08 10 0 10 C0 6.7 0 3.4 0 0 Z " fill="#191919" transform="translate(979,288)"/>
<path d="M0 0 C3.96 0 7.92 0 12 0 C12 3.3 12 6.6 12 10 C8.04 10 4.08 10 0 10 C0 6.7 0 3.4 0 0 Z " fill="#191919" transform="translate(888,288)"/>
<path d="M0 0 C3.63 0 7.26 0 11 0 C11 3.3 11 6.6 11 10 C7.37 10 3.74 10 0 10 C0 6.7 0 3.4 0 0 Z " fill="#191919" transform="translate(1070,288)"/>
</svg>
